<?xml version="1.0" encoding="UTF-8"?>
<!DOCTYPE svg PUBLIC "-//W3C//DTD SVG 1.1//EN" "http://www.w3.org/Graphics/SVG/1.1/DTD/svg11.dtd">
<!-- Creator: CorelDRAW 2021 (64-Bit) -->
<svg xmlns="http://www.w3.org/2000/svg" xml:space="preserve" width="35.3356mm" height="49.5019mm" version="1.1" style="shape-rendering:geometricPrecision; text-rendering:geometricPrecision; image-rendering:optimizeQuality; fill-rule:evenodd; clip-rule:evenodd"
viewBox="0 0 290.71 407.26"
 xmlns:xlink="http://www.w3.org/1999/xlink"
 xmlns:xodm="http://www.corel.com/coreldraw/odm/2003">
 <defs>
  <style type="text/css">
   <![CDATA[
    .fil0 {fill:black}
   ]]>
  </style>
 </defs>
 <g id="Layer_x0020_1">
  <metadata id="CorelCorpID_0Corel-Layer"/>
  <path class="fil0" d="M232.56 406.96l58.16 -1.13 -0.87 -231.52 -13.97 -1.04c-71.16,0.06 -111.82,-3.36 -155.55,-40.99 -34.48,-29.67 -58.57,-65.42 -62.26,-131.84l-57.71 -0.45 -0.36 405.59 57.48 -0.1c2.92,-37.91 -6.68,-90.52 7.64,-122.78 12.19,-27.47 39.82,-50.49 80.18,-50.08 38.78,0.39 65.32,23.48 78.51,51.41 15.23,32.26 6.4,84.03 8.75,122.93z"/>
  <polygon class="fil0" points="116.4,406.04 174.9,407.26 174.1,348.15 115.9,347.83 "/>
 </g>
</svg>
